<svg width="24" height="24" viewBox="0 0 24 24" fill="none" xmlns="http://www.w3.org/2000/svg">
<path fill-rule="evenodd" clip-rule="evenodd" d="M17.5253 15.502L23.8443 21.9L21.7492 24.0213L15.4302 17.6234C13.8377 18.8034 11.8738 19.5 9.7492 19.5C4.4309 19.5 0.119568 15.1348 0.119568 9.75C0.119568 4.36522 4.4309 0 9.7492 0C15.0675 0 19.3788 4.36522 19.3788 9.75C19.3788 11.9012 18.6908 13.8896 17.5253 15.502ZM9.7492 16.5C13.4311 16.5 16.4159 13.4779 16.4159 9.75C16.4159 6.02208 13.4311 3 9.7492 3C6.0673 3 3.08253 6.02208 3.08253 9.75C3.08253 13.4779 6.0673 16.5 9.7492 16.5Z" fill="#AAAAAA"/>
</svg>
